<svg width="15" height="11" viewBox="0 0 15 11" fill="none" xmlns="http://www.w3.org/2000/svg">
<path d="M8.29312 0.299042C8.48065 0.111571 8.73496 0.0062561 9.00012 0.0062561C9.26529 0.0062561 9.51959 0.111571 9.70712 0.299042L14.2071 4.79904C14.3946 4.98657 14.4999 5.24088 14.4999 5.50604C14.4999 5.77121 14.3946 6.02551 14.2071 6.21304L9.70712 10.713C9.51852 10.8952 9.26592 10.996 9.00372 10.9937C8.74152 10.9914 8.49071 10.8863 8.3053 10.7009C8.1199 10.5155 8.01473 10.2646 8.01245 10.0024C8.01017 9.74025 8.11096 9.48765 8.29312 9.29904L11.0001 6.50604H1.50012C1.23491 6.50604 0.980552 6.40069 0.793015 6.21315C0.605479 6.02561 0.500122 5.77126 0.500122 5.50604C0.500122 5.24083 0.605479 4.98647 0.793015 4.79894C0.980552 4.6114 1.23491 4.50604 1.50012 4.50604H11.0001L8.29312 1.71304C8.10565 1.52551 8.00034 1.27121 8.00034 1.00604C8.00034 0.740878 8.10565 0.48657 8.29312 0.299042Z" fill="#F58345"/>
</svg>
